<?xml version="1.0" standalone="no"?>
<!DOCTYPE svg PUBLIC "-//W3C//DTD SVG 1.1//EN" "http://www.w3.org/Graphics/SVG/1.1/DTD/svg11.dtd">
<svg version="1.1" xmlns="http://www.w3.org/2000/svg" viewBox="0 0 1043.9756700360297 379.5558739405815" width="1043.9756700360297" height="379.5558739405815"><!-- svg-source:excalidraw --><metadata></metadata><defs><style class="style-fonts">
      </style></defs><rect x="0" y="0" width="1043.9756700360297" height="379.5558739405815" fill="#ffffff"></rect><g stroke-linecap="round" transform="translate(10 151.78127414628034) rotate(0 106.69397678299481 71.6067477091733)"><path d="M32 0 C67.95 0, 103.89 0, 181.39 0 C202.72 0, 213.39 10.67, 213.39 32 C213.39 55.64, 213.39 79.27, 213.39 111.21 C213.39 132.55, 202.72 143.21, 181.39 143.21 C146.26 143.21, 111.13 143.21, 32 143.21 C10.67 143.21, 0 132.55, 0 111.21 C0 83.79, 0 56.37, 0 32 C0 10.67, 10.67 0, 32 0" stroke="none" stroke-width="0" fill="#a5d8ff"></path><path d="M32 0 C65.8 0, 99.59 0, 181.39 0 M32 0 C71.7 0, 111.4 0, 181.39 0 M181.39 0 C202.72 0, 213.39 10.67, 213.39 32 M181.39 0 C202.72 0, 213.39 10.67, 213.39 32 M213.39 32 C213.39 57.01, 213.39 82.01, 213.39 111.21 M213.39 32 C213.39 61.72, 213.39 91.43, 213.39 111.21 M213.39 111.21 C213.39 132.55, 202.72 143.21, 181.39 143.21 M213.39 111.21 C213.39 132.55, 202.72 143.21, 181.39 143.21 M181.39 143.21 C129.65 143.21, 77.92 143.21, 32 143.21 M181.39 143.21 C122.04 143.21, 62.68 143.21, 32 143.21 M32 143.21 C10.67 143.21, 0 132.55, 0 111.21 M32 143.21 C10.67 143.21, 0 132.55, 0 111.21 M0 111.21 C0 89.08, 0 66.94, 0 32 M0 111.21 C0 86.9, 0 62.58, 0 32 M0 32 C0 10.67, 10.67 0, 32 0 M0 32 C0 10.67, 10.67 0, 32 0" stroke="#1e1e1e" stroke-width="2" fill="none"></path></g><g transform="translate(86.69397678299481 210.88802185545364) rotate(0 30 12.5)"><text x="30" y="19.08" font-family="Nunito, sans-serif, Segoe UI Emoji" font-size="20px" fill="#1e1e1e" text-anchor="middle" style="white-space: pre;" direction="ltr" dominant-baseline="alphabetic">宏任务</text></g><g stroke-linecap="round"><g transform="translate(229.3879535659895 223.4015293005259) rotate(0 49.272894141385166 -0.006781038321832966)"><path d="M0 0 C28.39 0, 56.77 -0.01, 98.55 -0.01 M0 0 C27.9 0, 55.8 -0.01, 98.55 -0.01" stroke="#1e1e1e" stroke-width="2" fill="none"></path></g><g transform="translate(229.3879535659895 223.4015293005259) rotate(0 49.272894141385166 -0.006781038321832966)"><path d="M75.05 8.54 C81.82 6.08, 88.59 3.61, 98.55 -0.01 M75.05 8.54 C81.7 6.12, 88.36 3.7, 98.55 -0.01" stroke="#1e1e1e" stroke-width="2" fill="none"></path></g><g transform="translate(229.3879535659895 223.4015293005259) rotate(0 49.272894141385166 -0.006781038321832966)"><path d="M75.05 -8.56 C81.82 -6.1, 88.59 -3.64, 98.55 -0.01 M75.05 -8.56 C81.7 -6.14, 88.35 -3.72, 98.55 -0.01" stroke="#1e1e1e" stroke-width="2" fill="none"></path></g></g><mask></mask><g stroke-linecap="round"><g transform="translate(409.56538288354045 88.76736238536205) rotate(0 -40.16974754600733 135.461348635773)"><path d="M0 0 C-12.17 0, -60.39 -22.2, -73.04 0 C-85.69 22.2, -75.66 87.6, -75.9 133.19 C-76.14 178.78, -86.64 252.29, -74.47 273.54 C-62.3 294.78, -14.8 262.8, -2.86 260.65 M0 0 C-12.17 0, -60.39 -22.2, -73.04 0 C-85.69 22.2, -75.66 87.6, -75.9 133.19 C-76.14 178.78, -86.64 252.29, -74.47 273.54 C-62.3 294.78, -14.8 262.8, -2.86 260.65" stroke="#1e1e1e" stroke-width="2" fill="none"></path></g></g><mask></mask><g stroke-linecap="round" transform="translate(514.111143850525 111.68153694913735) rotate(0 90.94050567171155 44.39615517127049)"><path d="M22.2 0 C65.52 0, 108.84 0, 159.68 0 C174.48 0, 181.88 7.4, 181.88 22.2 C181.88 37.21, 181.88 52.22, 181.88 66.59 C181.88 81.39, 174.48 88.79, 159.68 88.79 C107.1 88.79, 54.53 88.79, 22.2 88.79 C7.4 88.79, 0 81.39, 0 66.59 C0 57.07, 0 47.54, 0 22.2 C0 7.4, 7.4 0, 22.2 0" stroke="none" stroke-width="0" fill="#ffec99"></path><path d="M22.2 0 C74.49 0, 126.78 0, 159.68 0 M22.2 0 C74.04 0, 125.88 0, 159.68 0 M159.68 0 C174.48 0, 181.88 7.4, 181.88 22.2 M159.68 0 C174.48 0, 181.88 7.4, 181.88 22.2 M181.88 22.2 C181.88 38.75, 181.88 55.3, 181.88 66.59 M181.88 22.2 C181.88 31.66, 181.88 41.13, 181.88 66.59 M181.88 66.59 C181.88 81.39, 174.48 88.79, 159.68 88.79 M181.88 66.59 C181.88 81.39, 174.48 88.79, 159.68 88.79 M159.68 88.79 C118.27 88.79, 76.86 88.79, 22.2 88.79 M159.68 88.79 C132.05 88.79, 104.42 88.79, 22.2 88.79 M22.2 88.79 C7.4 88.79, 0 81.39, 0 66.59 M22.2 88.79 C7.4 88.79, 0 81.39, 0 66.59 M0 66.59 C0 49.92, 0 33.24, 0 22.2 M0 66.59 C0 50.3, 0 34, 0 22.2 M0 22.2 C0 7.4, 7.4 0, 22.2 0 M0 22.2 C0 7.4, 7.4 0, 22.2 0" stroke="#1e1e1e" stroke-width="2" fill="none"></path></g><g transform="translate(565.0516495222366 143.57769212040785) rotate(0 40 12.5)"><text x="40" y="19.08" font-family="Nunito, sans-serif, Segoe UI Emoji" font-size="20px" fill="#343a40" text-anchor="middle" style="white-space: pre;" direction="ltr" dominant-baseline="alphabetic">同步代码</text></g><g stroke-linecap="round" transform="translate(514.111143850525 277.8089337734036) rotate(0 90.94050567171166 42.247987157884836)"><path d="M21.12 0 C56.81 0, 92.5 0, 160.76 0 C174.84 0, 181.88 7.04, 181.88 21.12 C181.88 30.97, 181.88 40.82, 181.88 63.37 C181.88 77.45, 174.84 84.5, 160.76 84.5 C129.23 84.5, 97.7 84.5, 21.12 84.5 C7.04 84.5, 0 77.45, 0 63.37 C0 48.9, 0 34.43, 0 21.12 C0 7.04, 7.04 0, 21.12 0" stroke="none" stroke-width="0" fill="#ffec99"></path><path d="M21.12 0 C51.95 0, 82.77 0, 160.76 0 M21.12 0 C72.93 0, 124.73 0, 160.76 0 M160.76 0 C174.84 0, 181.88 7.04, 181.88 21.12 M160.76 0 C174.84 0, 181.88 7.04, 181.88 21.12 M181.88 21.12 C181.88 31.01, 181.88 40.89, 181.88 63.37 M181.88 21.12 C181.88 30.69, 181.88 40.26, 181.88 63.37 M181.88 63.37 C181.88 77.45, 174.84 84.5, 160.76 84.5 M181.88 63.37 C181.88 77.45, 174.84 84.5, 160.76 84.5 M160.76 84.5 C128.38 84.5, 95.99 84.5, 21.12 84.5 M160.76 84.5 C110.94 84.5, 61.13 84.5, 21.12 84.5 M21.12 84.5 C7.04 84.5, 0 77.45, 0 63.37 M21.12 84.5 C7.04 84.5, 0 77.45, 0 63.37 M0 63.37 C0 50.46, 0 37.55, 0 21.12 M0 63.37 C0 54.61, 0 45.85, 0 21.12 M0 21.12 C0 7.04, 7.04 0, 21.12 0 M0 21.12 C0 7.04, 7.04 0, 21.12 0" stroke="#343a40" stroke-width="2" fill="none"></path></g><g transform="translate(555.0516495222366 307.55692093128846) rotate(0 50 12.5)"><text x="50" y="19.08" font-family="Nunito, sans-serif, Segoe UI Emoji" font-size="20px" fill="#343a40" text-anchor="middle" style="white-space: pre;" direction="ltr" dominant-baseline="alphabetic">微任务队列</text></g><g stroke-linecap="round"><g transform="translate(355.1442524393058 213.36301926670376) rotate(0 124.89796279081622 -101.68150963335188)"><path d="M0 0 C28.79 -0.43, 57.58 -0.86, 95.95 -1.43 M0 0 C27.76 -0.41, 55.51 -0.83, 95.95 -1.43 M95.95 -1.43 C95.11 -60.72, 94.27 -120, 93.09 -203.36 M95.95 -1.43 C94.86 -78.52, 93.77 -155.6, 93.09 -203.36 M93.09 -203.36 C135.51 -202.97, 177.93 -202.58, 247.76 -201.93 M93.09 -203.36 C148.36 -202.85, 203.62 -202.34, 247.76 -201.93 M247.76 -201.93 C248.35 -174.47, 248.95 -147, 249.8 -107.68 M247.76 -201.93 C248.23 -180.14, 248.7 -158.36, 249.8 -107.68" stroke="#343a40" stroke-width="2" fill="none"></path></g><g transform="translate(355.1442524393058 213.36301926670376) rotate(0 124.89796279081622 -101.68150963335188)"><path d="M240.74 -130.98 C243.46 -123.99, 246.17 -117, 249.8 -107.68 M240.74 -130.98 C243.36 -124.24, 245.98 -117.5, 249.8 -107.68" stroke="#343a40" stroke-width="2" fill="none"></path></g><g transform="translate(355.1442524393058 213.36301926670376) rotate(0 124.89796279081622 -101.68150963335188)"><path d="M257.84 -131.35 C255.42 -124.25, 253.01 -117.15, 249.8 -107.68 M257.84 -131.35 C255.51 -124.51, 253.19 -117.66, 249.8 -107.68" stroke="#343a40" stroke-width="2" fill="none"></path></g></g><mask></mask><g stroke-linecap="round"><g transform="translate(605.0128696609077 206.47384729167834) rotate(0 -0.3386517294592295 37.09979182871416)"><path d="M0 0 C-0.22 24.52, -0.45 49.04, -0.68 74.2 M0 0 C-0.26 28.7, -0.52 57.4, -0.68 74.2" stroke="#343a40" stroke-width="2" fill="none"></path></g><g transform="translate(605.0128696609077 206.47384729167834) rotate(0 -0.3386517294592295 37.09979182871416)"><path d="M-9.01 50.63 C-6.26 58.42, -3.5 66.21, -0.68 74.2 M-9.01 50.63 C-5.79 59.75, -2.56 68.86, -0.68 74.2" stroke="#343a40" stroke-width="2" fill="none"></path></g><g transform="translate(605.0128696609077 206.47384729167834) rotate(0 -0.3386517294592295 37.09979182871416)"><path d="M8.09 50.79 C5.19 58.52, 2.29 66.26, -0.68 74.2 M8.09 50.79 C4.7 59.84, 1.31 68.9, -0.68 74.2" stroke="#343a40" stroke-width="2" fill="none"></path></g></g><mask></mask><g stroke-linecap="round" transform="translate(816.2913667853766 166.10255813022923) rotate(0 108.84215162532655 52.98896380373981)"><path d="M26.49 0 C85.5 0, 144.51 0, 191.19 0 C208.85 0, 217.68 8.83, 217.68 26.49 C217.68 46.68, 217.68 66.87, 217.68 79.48 C217.68 97.15, 208.85 105.98, 191.19 105.98 C125.59 105.98, 59.99 105.98, 26.49 105.98 C8.83 105.98, 0 97.15, 0 79.48 C0 67.43, 0 55.37, 0 26.49 C0 8.83, 8.83 0, 26.49 0" stroke="none" stroke-width="0" fill="#b2f2bb"></path><path d="M26.49 0 C85.6 0, 144.71 0, 191.19 0 M26.49 0 C77.14 0, 127.79 0, 191.19 0 M191.19 0 C208.85 0, 217.68 8.83, 217.68 26.49 M191.19 0 C208.85 0, 217.68 8.83, 217.68 26.49 M217.68 26.49 C217.68 40.23, 217.68 53.97, 217.68 79.48 M217.68 26.49 C217.68 46.39, 217.68 66.28, 217.68 79.48 M217.68 79.48 C217.68 97.15, 208.85 105.98, 191.19 105.98 M217.68 79.48 C217.68 97.15, 208.85 105.98, 191.19 105.98 M191.19 105.98 C136.16 105.98, 81.13 105.98, 26.49 105.98 M191.19 105.98 C133.72 105.98, 76.24 105.98, 26.49 105.98 M26.49 105.98 C8.83 105.98, 0 97.15, 0 79.48 M26.49 105.98 C8.83 105.98, 0 97.15, 0 79.48 M0 79.48 C0 63.95, 0 48.42, 0 26.49 M0 79.48 C0 61.74, 0 44, 0 26.49 M0 26.49 C0 8.83, 8.83 0, 26.49 0 M0 26.49 C0 8.83, 8.83 0, 26.49 0" stroke="#343a40" stroke-width="2" fill="none"></path></g><g transform="translate(895.1335184107031 206.59152193396903) rotate(0 30 12.5)"><text x="30" y="19.08" font-family="Nunito, sans-serif, Segoe UI Emoji" font-size="20px" fill="#343a40" text-anchor="middle" style="white-space: pre;" direction="ltr" dominant-baseline="alphabetic">宏任务</text></g><g stroke-linecap="round"><g transform="translate(701.9921551939483 320.2788238943758) rotate(0 54.14960579571414 -49.49230821755418)"><path d="M0 0 C13.25 0.47, 26.49 0.94, 54.15 1.93 M0 0 C12.79 0.45, 25.58 0.91, 54.15 1.93 M54.15 1.93 C53.14 -21.6, 52.13 -45.13, 49.85 -98.32 M54.15 1.93 C53.09 -22.77, 52.03 -47.47, 49.85 -98.32 M49.85 -98.32 C72.79 -99.34, 95.73 -100.35, 108.3 -100.91 M49.85 -98.32 C66.75 -99.07, 83.64 -99.82, 108.3 -100.91" stroke="#343a40" stroke-width="2" fill="none"></path></g><g transform="translate(701.9921551939483 320.2788238943758) rotate(0 54.14960579571414 -49.49230821755418)"><path d="M85.21 -91.33 C90.86 -93.67, 96.51 -96.02, 108.3 -100.91 M85.21 -91.33 C90.66 -93.59, 96.11 -95.85, 108.3 -100.91" stroke="#343a40" stroke-width="2" fill="none"></path></g><g transform="translate(701.9921551939483 320.2788238943758) rotate(0 54.14960579571414 -49.49230821755418)"><path d="M84.45 -108.41 C90.29 -106.58, 96.12 -104.74, 108.3 -100.91 M84.45 -108.41 C90.08 -106.64, 95.71 -104.87, 108.3 -100.91" stroke="#343a40" stroke-width="2" fill="none"></path></g></g><mask></mask></svg>